<?xml version="1.0" encoding="UTF-8"?>
<svg id="_Слой_1" data-name="Слой 1" xmlns="http://www.w3.org/2000/svg" xmlns:xlink="http://www.w3.org/1999/xlink" viewBox="0 0 1080 1080">
  <defs>
    <style>
      .cls-1 {
        fill: url(#Bronze-3);
      }

      .cls-2 {
        fill: url(#Bronze-2);
      }

      .cls-3 {
        fill: url(#Bronze-4);
      }

      .cls-4 {
        fill: url(#Bronze-6);
      }

      .cls-5 {
        fill: url(#Bronze-7);
      }

      .cls-6 {
        fill: url(#Bronze-5);
      }

      .cls-7 {
        fill: url(#Bronze-9);
      }

      .cls-8 {
        fill: url(#Bronze-8);
      }

      .cls-9 {
        fill: url(#Bronze);
      }

      .cls-10 {
        fill: url(#Bronze-11);
      }

      .cls-11 {
        fill: url(#Bronze-12);
      }

      .cls-12 {
        fill: url(#Bronze-10);
      }

      .cls-13 {
        fill: url(#Bronze-15);
      }

      .cls-14 {
        fill: url(#Bronze-16);
      }

      .cls-15 {
        fill: url(#Bronze-14);
      }

      .cls-16 {
        fill: url(#Bronze-13);
      }
    </style>
    <linearGradient id="Bronze" x1="922.31" y1="931.98" x2="464.37" y2="496.72" gradientUnits="userSpaceOnUse">
      <stop offset="0" stop-color="#461e18"/>
      <stop offset=".08" stop-color="#6f4a27"/>
      <stop offset=".38" stop-color="#ae9153"/>
      <stop offset=".56" stop-color="#e9d9bb"/>
      <stop offset=".79" stop-color="#a2835f"/>
      <stop offset=".8" stop-color="#a0805c"/>
      <stop offset=".96" stop-color="#89542e"/>
    </linearGradient>
    <linearGradient id="Bronze-2" data-name="Bronze" x1="928.64" y1="925.32" x2="470.71" y2="490.05" xlink:href="#Bronze"/>
    <linearGradient id="Bronze-3" data-name="Bronze" x1="934.72" y1="918.93" x2="476.78" y2="483.66" xlink:href="#Bronze"/>
    <linearGradient id="Bronze-4" data-name="Bronze" x1="940.96" y1="912.36" x2="483.02" y2="477.1" xlink:href="#Bronze"/>
    <linearGradient id="Bronze-5" data-name="Bronze" x1="948.5" y1="904.42" x2="490.57" y2="469.16" xlink:href="#Bronze"/>
    <linearGradient id="Bronze-6" data-name="Bronze" x1="953.12" y1="899.57" x2="495.18" y2="464.31" xlink:href="#Bronze"/>
    <linearGradient id="Bronze-7" data-name="Bronze" x1="958.82" y1="893.57" x2="500.89" y2="458.3" xlink:href="#Bronze"/>
    <linearGradient id="Bronze-8" data-name="Bronze" x1="965" y1="887.07" x2="507.07" y2="451.8" xlink:href="#Bronze"/>
    <linearGradient id="Bronze-9" data-name="Bronze" x1="972.26" y1="879.43" x2="514.33" y2="444.17" xlink:href="#Bronze"/>
    <linearGradient id="Bronze-10" data-name="Bronze" x1="978.51" y1="872.85" x2="520.58" y2="437.59" xlink:href="#Bronze"/>
    <linearGradient id="Bronze-11" data-name="Bronze" x1="986.27" y1="864.69" x2="528.34" y2="429.43" xlink:href="#Bronze"/>
    <linearGradient id="Bronze-12" data-name="Bronze" x1="955.31" y1="897.26" x2="497.37" y2="462" xlink:href="#Bronze"/>
    <linearGradient id="Bronze-13" data-name="Bronze" x1="944.85" y1="908.27" x2="486.92" y2="473.01" xlink:href="#Bronze"/>
    <linearGradient id="Bronze-14" data-name="Bronze" x1="966.17" y1="885.83" x2="508.24" y2="450.57" xlink:href="#Bronze"/>
    <linearGradient id="Bronze-15" data-name="Bronze" x1="1001.12" y1="849.07" x2="543.18" y2="413.81" xlink:href="#Bronze"/>
    <linearGradient id="Bronze-16" data-name="Bronze" x1="1034.81" y1="813.62" x2="576.88" y2="378.36" xlink:href="#Bronze"/>
  </defs>
  <g>
    <path class="cls-9" d="m587.31,607.19c1.33,0,2.38.31,3.14.92.76.61,1.15,1.45,1.15,2.52,0,.86-.26,1.57-.77,2.14-.52.57-1.24.94-2.18,1.13l3.98,4.85h-1.22l-3.88-4.7h-2.69v4.7h-.99v-11.55h3.46Zm2.42,5.3c.58-.46.87-1.08.87-1.87s-.29-1.42-.87-1.87-1.39-.68-2.41-.68h-2.49v5.11h2.49c1.02,0,1.82-.23,2.41-.68Z"/>
    <path class="cls-2" d="m596.71,607.19h6.63v.89h-5.66v4.44h4.16v.89h-4.16v4.44h6.38v.89h-7.36v-11.55Z"/>
    <path class="cls-1" d="m609.8,618.21c-.9-.52-1.6-1.23-2.1-2.14-.51-.91-.76-1.95-.76-3.1s.25-2.19.76-3.1c.51-.91,1.21-1.63,2.1-2.14s1.91-.78,3.04-.78c.99,0,1.88.2,2.68.59.8.39,1.45.94,1.95,1.66.51.71.82,1.54.94,2.47h-.99c-.2-1.15-.71-2.07-1.53-2.75-.82-.68-1.83-1.02-3.04-1.02-.96,0-1.81.21-2.55.64-.74.43-1.32,1.03-1.74,1.8s-.63,1.65-.63,2.64.21,1.86.63,2.63c.42.78,1,1.38,1.75,1.81.75.43,1.59.64,2.54.64,1.22,0,2.24-.34,3.05-1.02.81-.68,1.32-1.6,1.52-2.75h.99c-.13.93-.45,1.76-.96,2.47-.51.71-1.15,1.27-1.95,1.66-.79.39-1.68.59-2.67.59-1.13,0-2.15-.26-3.04-.78Z"/>
    <path class="cls-3" d="m626.6,607.19c1.33,0,2.38.31,3.14.92.76.61,1.15,1.45,1.15,2.52,0,.86-.26,1.57-.77,2.14-.52.57-1.24.94-2.18,1.13l3.98,4.85h-1.22l-3.88-4.7h-2.69v4.7h-.99v-11.55h3.46Zm2.42,5.3c.58-.46.87-1.08.87-1.87s-.29-1.42-.87-1.87c-.58-.46-1.39-.68-2.41-.68h-2.49v5.11h2.49c1.02,0,1.82-.23,2.41-.68Z"/>
    <path class="cls-6" d="m637.98,618.34c-.75-.43-1.33-1.03-1.73-1.81s-.61-1.69-.61-2.72v-6.61h.99v6.6c0,1.31.35,2.34,1.06,3.11.71.76,1.67,1.15,2.89,1.15s2.17-.38,2.88-1.15c.71-.76,1.06-1.8,1.06-3.11v-6.6h.99v6.61c0,1.03-.2,1.94-.61,2.72-.41.78-.98,1.39-1.72,1.81-.74.43-1.61.64-2.6.64s-1.86-.21-2.61-.64Z"/>
    <path class="cls-4" d="m651.09,607.19h.99v11.55h-.99v-11.55Z"/>
    <path class="cls-5" d="m660.81,608.15h-4.6v-.96h10.19v.96h-4.6v10.59h-.99v-10.59Z"/>
    <path class="cls-8" d="m670.52,607.19h1.63l4.49,10.46,4.47-10.46h1.62v11.55h-.97v-10.69l-4.55,10.69h-1.17l-4.54-10.69v10.69h-.97v-11.55Z"/>
    <path class="cls-7" d="m688.6,607.19h6.63v.89h-5.66v4.44h4.16v.89h-4.16v4.44h6.38v.89h-7.36v-11.55Z"/>
    <path class="cls-12" d="m700.28,607.19h1.07l7.62,10.13v-10.13h.94v11.55h-1.06l-7.62-10.13v10.13h-.96v-11.55Z"/>
    <path class="cls-10" d="m718.64,608.15h-4.6v-.96h10.19v.96h-4.6v10.59h-.99v-10.59Z"/>
  </g>
  <path class="cls-11" d="m558.12,730.16c3.42-.12,8.37-.39,11.81-.51.29-.03.59-.06.88-.08,7.84.49,15.71.47,23.55-.08,8.24.52,16.52.46,24.76-.17,8.32.5,16.71.46,25.06-.14,12.81.84,25.7.31,38.34-1.6.45,0,.91.03,1.36.03,5.23.1,10.46-.2,15.69-.61,4.43.3,8.87.47,13.3.5l9.75-.15v-.75c-5.39-.42-10.77-1.05-16.05-2.16-1.08-.24-2.29-.49-3.55-.76.17-.03.34-.06.51-.09-3.58-.87-10.74-2.6-16-3.88-14.2-4.28-28.14-9.95-41.08-17.09-.14-.07-.28-.14-.42-.21-2.25-1.25-4.52-2.48-6.86-3.65-13.13-6.33-27.99-12.29-43.12-18.01-.7-.43-1.35-.63-1.94-.73-1.84-.69-3.68-1.38-5.52-2.07-6.23-2.4-12.72-4.87-19.42-7.42-7.36-2.8-14.96-5.7-22.69-8.68-14.72-5.67-26.64-10.39-37.52-14.87-12.43-5.11-23.44-9.86-33.68-14.54-12.68-5.8-23.65-11.25-33.53-16.66-11.33-6.19-21.17-12.32-29.23-18.23-9.64-7.08-16.97-14-21.98-20.72-4.33-6.24-7.22-13.06-7.7-20.45.48-12.38,8.26-22.85,16.85-31.33,3.61-3.44,7.78-6.93,12.52-10.46,8.01-5.96,17.8-12.17,29.09-18.46,9.85-5.49,20.78-11.02,33.41-16.91,10.2-4.76,21.18-9.6,33.57-14.8,10.96-4.6,22.84-9.42,37.4-15.15,2.08-.82,4.15-1.64,6.22-2.44,9.35-3.57,36.8-14.05,36.8-14.05,16.61-6.38,33.42-12.68,49.39-20.71,2.33-1.18,4.59-2.43,6.83-3.7.14-.08.28-.14.42-.22,11.51-6.6,24.08-11.66,36.59-16.13,1.24-.36,2.51-.74,3.8-1.12,2.77-.76,5.55-1.47,8.33-2.1,0,0,8.2-2.06,8.2-2.06-.16-.03-.33-.06-.5-.09,1.36-.3,2.62-.58,3.53-.79,5.27-1.15,10.64-1.82,16.03-2.29v-.76s-9.76-.08-9.76-.08c-4.43.06-8.86.26-13.29.6-5.23-.37-10.47-.63-15.7-.49-.45,0-.89.03-1.34.04-12.6-1.85-25.37-2.29-38.03-1.36-8.66-.6-17.33-.54-25.94.14-8.02-.55-16.02-.56-23.97-.04-7.98-.5-15.96-.47-23.9.11-.26-.02-.53-.05-.79-.07-3.42-.11-8.41-.32-11.82-.42-3.2.07-10.99.41-14.19.53-1.43.15-5.6.7-7.05.85-50.17,5.69-96.69,34.94-124.07,76.8-.79,1.23-5.42,8.97-6.06,9.96-.7,1.44-2.46,4.69-3.19,6.22-1.68,3-3.07,6.15-4.39,9.31-2.84,1.14-5.62,2.28-8.32,3.4-58.62,24.46-85.88,46.11-85.79,68.15.08,22.04,27.51,43.49,86.3,67.5,2.64,1.08,5.36,2.17,8.15,3.26,1.41,3.32,2.87,6.62,4.66,9.76.9,1.67,2.28,4.45,3.23,6.19l1.22,1.98s4.92,7.93,4.92,7.93c20.85,31.15,52.05,55.34,87.82,67.56,0,0,4.45,1.58,4.45,1.58,4.43,1.14,9.28,2.63,13.71,3.64,7.68,1.59,15.53,2.91,23.37,3.6l2.35.26s2.37.08,2.37.08c1.63.01,10.4.39,11.82.34Zm156.62-3.2l-1.86.09c-3.4.02-6.79-.09-10.18-.3,1.54-.13,3.08-.27,4.62-.4,2.47.25,4.94.45,7.41.61Zm-30.34-4.4c.6.17,1.2.34,1.81.5-1.82.3-3.64.57-5.46.82-.9-.18-1.8-.36-2.7-.55,1.34-.37,2.91-.8,4.5-1.23.62.16,1.24.32,1.86.46Zm-10.16-2.82c.45.15.91.27,1.37.41-1.81.48-3.63.94-5.31,1.31-2.03-.54-4.06-1.12-6.07-1.73,1.61-.57,3.21-1.14,4.81-1.72,1.73.61,3.47,1.2,5.2,1.74Zm-224.07-73.86c2.91.97,5.89,1.95,8.93,2.95,4,6.45,8.45,12.65,13.23,18.59,13.16,15.88,29.17,29.53,47.21,39.72,12.71,7.43,26.4,13.03,40.59,16.82-52.83-6.94-100.82-37.57-129.23-84.64,6.17,2.16,12.59,4.35,19.27,6.57Zm10.33,3.41c7.02,2.29,14.44,4.66,22.44,7.16,3.13.98,6.33,1.97,9.59,2.98,9.1,12.59,19.93,24.03,32.27,33.68,17.59,13.92,38.05,24.25,59.72,30.32-.56.1-.98.18-1.17.22-.26.04-.53.07-.79.11-48.23-6.63-92.83-32.92-122.06-74.47Zm90.94,28.01c3.29.99,6.43,1.83,9.5,2.6,14.05,13.28,30.36,24.27,48.03,32.19,2.59,1.16,5.21,2.24,7.85,3.27-2.86,1.03-5.76,1.97-8.68,2.82-30.2-8.69-57.92-25.12-80.14-47.94,2.45.74,4.91,1.48,7.33,2.21,5.47,1.65,10.84,3.26,16.11,4.86Zm71.11,40.16c2.11.73,4.23,1.4,6.36,2.04-1.17.3-2.33.58-3.51.84-1.49.37-2.99.68-4.49,1-1.8-.38-3.59-.79-5.37-1.22,2.36-.83,4.7-1.72,7.01-2.66Zm2.17-.9c3.78-1.61,7.51-3.35,11.18-5.2,2.63,1.22,5.29,2.36,7.98,3.43-4.13,1.54-8.31,2.91-12.56,4.08-2.22-.72-4.42-1.49-6.6-2.3Zm-5.44-2.11c-19.28-7.85-37.17-19.1-52.46-33.12,2.22.51,4.41,1.01,6.57,1.49,5.92,1.32,11.57,2.58,17.1,4.22.55.27,1.08.41,1.56.48.45.14.9.28,1.35.43l9.03,2.95c7,5.37,14.32,10.39,21.98,14.57,2.34,1.33,4.72,2.58,7.12,3.78-4.02,1.89-8.1,3.64-12.24,5.21Zm-103.74-47.98c3.49,1.06,6.96,2.11,10.4,3.14,3.29,3.91,6.75,7.69,10.38,11.32,17.44,17.21,38.66,30.54,61.84,38.87.55.2,1.11.37,1.66.56-1.3.33-2.83.74-4.06,1.04-39.3-8.32-75.25-29.66-101.59-61.46,6.75,2.09,13.82,4.24,21.37,6.53Zm90.05,56.75c.58-.16,1.16-.31,1.74-.47.81.24,1.63.46,2.45.69-.45.07-.9.12-1.35.18-.95-.13-1.89-.26-2.83-.4Zm25.17-.07c1.31-.37,2.62-.72,3.92-1.12.51-.15,1.01-.32,1.52-.48,1.11.28,2.23.55,3.35.81-2.22.42-4.44.79-6.66,1.12-.71-.1-1.43-.22-2.14-.33Zm7.44-2.23c3.7-1.23,7.32-2.66,10.92-4.17,1.94.7,3.89,1.36,5.86,1.98-4.35,1.23-8.71,2.28-13.09,3.17-1.23-.31-2.46-.64-3.69-.98Zm25.53-4.89c-1.83.62-3.67,1.21-5.51,1.77-2.09-.72-4.17-1.47-6.23-2.26,1.74-.75,3.47-1.52,5.21-2.28,2.16.98,4.34,1.9,6.54,2.78Zm-10.9-4.83c-1.91.82-3.83,1.6-5.76,2.36-2.78-1.16-5.53-2.4-8.25-3.7,1.92-1,3.83-2.01,5.72-3.04,2.68,1.54,5.45,3,8.28,4.39Zm-12.28-6.48c-1.97,1.05-3.96,2.07-5.96,3.06-2.97-1.51-5.9-3.08-8.78-4.74-4.72-2.76-9.28-5.78-13.71-8.98l.27.09-2.42-2c10.44,3.67,20.82,7.57,30.6,12.57Zm-257.92-148.33s-.07,0-.1,0h0s.06,0,.1,0Zm232.98-160.76c-2.63,1.04-5.25,2.14-7.83,3.32-17.19,7.8-32.96,18.62-46.68,31.54-3.55,1.11-7.09,2.21-10.59,3.3-5.16,1.6-10.43,3.23-15.79,4.89-2.3.71-4.63,1.43-6.96,2.15,14.1-14.49,30.52-26.72,48.57-35.95,9.78-4.93,20.03-8.94,30.56-12.02,2.94.83,5.85,1.75,8.73,2.77Zm-1.37-4.77c1.89-.47,3.78-.89,5.69-1.3,2.6.55,5.19,1.16,7.78,1.83-2.14.66-4.27,1.35-6.39,2.1-2.33-.93-4.69-1.81-7.08-2.63Zm-6.26,24.39l-14.04,4.7c-8.26,2.76-17.25,5.64-26.34,8.51,14.8-13.4,31.97-24.24,50.46-31.94,4.16,1.54,8.25,3.26,12.28,5.12-2.39,1.22-4.77,2.48-7.1,3.83-5.25,2.92-10.34,6.23-15.27,9.78Zm15.51-20.88c2.18-.82,4.36-1.61,6.57-2.34,3.41.93,6.82,1.93,10.2,3.08.82.27,1.64.58,2.45.88-2.7,1.09-5.36,2.26-8,3.5-3.69-1.82-7.43-3.53-11.22-5.12Zm13.31-4.43c1.26-.36,2.53-.71,3.8-1.05,4.28.77,8.56,1.65,12.49,2.81.25.07.5.15.76.22-1.99.65-3.97,1.34-5.93,2.06-3.68-1.47-7.38-2.82-11.12-4.03Zm-1.95-.63c-1.76-.55-3.54-1.07-5.31-1.56.8-.13,1.59-.25,2.39-.37,2.06.36,4.17.71,6.3,1.08-1.13.28-2.26.55-3.38.85Zm-26.11-1.72c-.86.24-1.72.48-2.58.74-.58-.16-1.17-.31-1.76-.46,1.04-.17,2.08-.31,3.12-.46.41.06.82.13,1.22.18Zm-159.24,78.35c-6.65,2.27-12.87,4.44-18.8,6.57,4.16-6.9,8.69-13.57,13.68-19.89,28.67-36.15,70-58.8,114.13-65.06-23.53,6.55-45.83,18.17-65.43,34.96-13.51,11.55-25.12,25.22-34.36,40.31-3.13,1.05-6.2,2.09-9.21,3.11Zm45.62-41.01c24.71-20.17,54.97-32.91,86.48-37.43.59.09,1.19.18,1.81.28-21.54,6.14-41.91,16.45-59.64,30.77-12.1,9.61-22.71,20.95-31.64,33.4-3.4,1.08-6.71,2.14-9.95,3.18-7.77,2.5-15.01,4.87-21.91,7.17,9.85-14.02,21.5-26.72,34.85-37.37Zm30.6-3.9c20.28-15.32,43.97-25.88,68.8-31.3,1.21.3,2.8.7,4.12,1.03-16.02,5.6-31.19,13.6-44.8,23.9-10.45,7.84-20,16.85-28.32,26.86-3.57,1.11-7.17,2.22-10.8,3.35-7.35,2.28-14.22,4.44-20.74,6.51,9.36-11.31,19.92-21.63,31.76-30.34Zm-142.67,129.96c.03-.16.06-.33.1-.49-.04.16-.07.33-.1.49Zm.63-2.58c.03-.1.06-.2.09-.3-.03.1-.06.2-.09.3Zm224.35-129.2c5.33-4.08,10.88-7.89,16.66-11.33,2.86-1.68,5.79-3.28,8.74-4.81,2.01.97,4.01,1.98,5.99,3.02-10.02,5.22-20.68,9.28-31.39,13.13Zm35.37-15.26c-1.9-1.02-3.82-2.02-5.74-3,2.72-1.32,5.46-2.58,8.24-3.77,1.91.76,3.81,1.55,5.71,2.35-2.8,1.4-5.55,2.88-8.2,4.43Zm19.06-9.34c-2.18.88-4.34,1.82-6.47,2.81-1.71-.78-3.42-1.55-5.14-2.28,2.06-.81,4.14-1.57,6.22-2.31,1.81.56,3.6,1.16,5.39,1.77Zm11.95-4.26c-.47.15-.96.28-1.43.44-1.65.53-3.31,1.1-4.96,1.7-1.61-.58-3.22-1.13-4.83-1.67,1.9-.59,3.82-1.15,5.74-1.68,1.83.38,3.66.78,5.48,1.22Zm6.99-3.55c1.2.16,2.4.35,3.6.55-.63.18-1.25.35-1.88.54-.62.15-1.24.32-1.85.48-1.6-.42-3.17-.84-4.51-1.2.9-.2,1.8-.39,2.71-.57.64.07,1.29.13,1.93.21Zm30.17-3.62s1.28.05,1.86.07c-2.47.18-4.94.4-7.41.67-1.54-.12-3.08-.25-4.62-.36,3.39-.23,6.78-.37,10.17-.37Zm-27.68.12c3.17.02,6.36.18,9.55.44-1.49.15-2.98.31-4.47.49-1.73-.33-3.43-.64-5.08-.92Zm7.11,1.31c1.76-.24,3.52-.45,5.29-.62,1.6.15,3.2.33,4.8.52-2,.27-4,.57-5.99.9-1.36-.26-2.73-.53-4.1-.79Zm-14.9,1.61c-.55.1-1.11.22-1.66.33-.95-.24-1.91-.47-2.86-.7,1.51.11,3.02.22,4.52.37Zm-30.06-.25c.9.06,1.81.14,2.71.22-.32.06-.65.13-.97.19-.58-.14-1.16-.28-1.74-.41Zm19.69,2.51c-1.79.45-3.57.92-5.34,1.42-3.63-1.15-7.27-2.19-10.93-3.11.59-.12,1.17-.25,1.76-.37,4.86.49,9.7,1.17,14.51,2.06Zm-244.18,61.06c3.04-3.31,6.13-7.08,9.27-10.26,2.46-2.27,7.42-7.46,10.05-9.49,17.24-15.05,37.55-27.19,59.4-34.37,0,0,4.34-1.53,4.34-1.53,4.31-1.12,9.03-2.58,13.34-3.58,6.04-1.13,12.03-2.54,18.16-3.04.28-.04.68-.08,1.12-.13-26.21,6.95-50.92,20.03-71.8,39.03-14.65,13.46-26.97,29.33-36.18,46.85-2.96,1.06-5.85,2.12-8.68,3.16-7.51,2.77-14.71,5.53-21.53,8.26,6.22-12.41,13.72-24.1,22.51-34.89Zm-110.21,106.9c-.07-18.06,27.22-38.62,81.12-61.11,9.4-3.92,19.74-7.97,30.74-12.02,8.87-3.27,18.27-6.6,28.74-10.18,10.04-3.43,20.69-6.95,32.55-10.76,9.96-3.2,20.57-6.55,32.45-10.24,1.55-.48,3.1-.96,4.64-1.44-5.74,2.33-11.1,4.54-16.25,6.71-12.48,5.24-23.55,10.12-33.84,14.92-12.8,5.97-23.88,11.58-33.89,17.16-11.58,6.44-21.65,12.84-29.93,19-21.7,16.18-32.42,31.51-32.76,46.85-.02.58-.01,1.2,0,1.72.45,15.35,11.28,30.6,33.1,46.63,8.34,6.11,18.46,12.42,30.08,18.77,10.04,5.5,21.17,11.03,34.02,16.91,10.33,4.72,21.43,9.52,33.95,14.66,5.16,2.12,10.54,4.29,16.34,6.6-1.56-.47-3.12-.94-4.69-1.42-11.81-3.57-22.44-6.84-32.52-9.99-11.99-3.75-22.67-7.2-32.65-10.53-10.21-3.39-19.9-6.74-28.81-9.95-11.08-3.99-21.46-7.96-30.84-11.79-54.06-22.07-81.5-42.42-81.57-60.49Zm226.06,167.86c-6.14-.46-12.14-1.82-18.18-2.9-4.33-.97-9.04-2.4-13.37-3.48l-4.35-1.49c-26.32-8.44-50.35-23.92-69.78-43.33-13.15-13.35-23.97-28.75-32.41-45.42,6.9,2.7,14.21,5.44,21.87,8.2,2.75.99,5.6,2,8.49,3.01,4.08,7.64,8.73,14.99,13.84,22.04,20.48,27.26,49.14,48.16,81.47,59.55,4.21,1.46,8.47,2.74,12.77,3.86-.11-.01-.24-.02-.33-.03Zm113.5-.35c3.57-.94,7.09-2.07,10.58-3.27,1.82.5,3.65.97,5.48,1.41-4.85.92-9.7,1.64-14.54,2.16-.51-.1-1.02-.21-1.52-.31Zm-1.66.41c.27.05.53.1.8.15-.71.07-1.42.12-2.13.18.45-.1.89-.22,1.33-.33Zm26.48-.4c.6.11,1.19.23,1.79.34-1.67.19-3.35.34-5.04.46,1.08-.27,2.17-.51,3.25-.8Zm20.64.99c2,.32,4.01.61,6.03.86-1.59.2-3.19.39-4.79.55-1.78-.17-3.55-.36-5.33-.59,1.36-.27,2.73-.55,4.09-.82Zm-6.12,1.23c1.5.17,3,.32,4.5.46-3.2.28-6.39.46-9.56.51,1.65-.3,3.34-.62,5.06-.96Z"/>
  <g>
    <path class="cls-16" d="m556.14,559.87l-24.32-34.52h8.59l22.96,32.87,23.05-32.87h2.08l-24.23,34.6v23.07h-8.14v-23.15Z"/>
    <path class="cls-15" d="m619.45,525.36c7.9,0,14.04,1.46,18.44,4.37,4.4,2.91,6.6,6.95,6.6,12.11s-2.2,9.2-6.6,12.11c-4.4,2.91-10.55,4.37-18.44,4.37h-10.49v24.71h-8.14v-57.66h18.62Zm12.39,27.39c3.01-2.61,4.52-6.25,4.52-10.92s-1.51-8.31-4.52-10.92c-3.01-2.61-7.2-3.91-12.57-3.91h-10.31v29.66h10.31c5.36,0,9.55-1.3,12.57-3.91Z"/>
    <path class="cls-13" d="m672.76,579.15c-4.97-2.58-8.88-6.16-11.71-10.75-2.83-4.58-4.25-9.73-4.25-15.45s1.42-10.93,4.25-15.49c2.83-4.56,6.74-8.13,11.71-10.71,4.97-2.58,10.56-3.87,16.77-3.87s11.89,1.29,16.86,3.87c4.97,2.58,8.86,6.15,11.66,10.71,2.8,4.56,4.2,9.72,4.2,15.49s-1.4,10.86-4.2,15.45c-2.8,4.59-6.69,8.17-11.66,10.75-4.97,2.58-10.59,3.87-16.86,3.87s-11.8-1.29-16.77-3.87Zm29.52-1.15c3.68-2.31,6.54-5.61,8.59-9.93,2.05-4.31,3.07-9.35,3.07-15.12s-1.03-10.8-3.07-15.12c-2.05-4.31-4.91-7.62-8.59-9.93-3.68-2.31-7.93-3.46-12.75-3.46s-9.07,1.15-12.75,3.46c-3.68,2.31-6.54,5.62-8.59,9.93-2.05,4.31-3.07,9.35-3.07,15.12s1.02,10.81,3.07,15.12c2.05,4.31,4.91,7.62,8.59,9.93,3.68,2.31,7.92,3.46,12.75,3.46s9.07-1.15,12.75-3.46Z"/>
    <path class="cls-14" d="m744.52,580.51c-3.13-1.67-5.58-4.06-7.32-7.17-1.75-3.1-2.62-6.77-2.62-11v-2.8h1.81v2.8c0,3.57.68,6.7,2.03,9.39,1.36,2.69,3.27,4.78,5.74,6.26,2.47,1.48,5.33,2.22,8.59,2.22,4.7,0,8.44-1.55,11.21-4.65,2.77-3.1,4.16-7.24,4.16-12.4v-39.05h8.14v37.65c0,6.65-1.87,11.85-5.61,15.61-3.74,3.76-8.8,5.64-15.19,5.64-4.16,0-7.81-.84-10.94-2.51Z"/>
  </g>
</svg>