<?xml version="1.0" encoding="UTF-8"?>
<svg id="_Слой_1" data-name="Слой 1" xmlns="http://www.w3.org/2000/svg" xmlns:xlink="http://www.w3.org/1999/xlink" viewBox="0 0 1080 1080">
  <defs>
    <style>
      .cls-1 {
        fill: url(#Bronze-3);
      }

      .cls-2 {
        fill: url(#Bronze-2);
      }

      .cls-3 {
        fill: url(#Bronze-4);
      }

      .cls-4 {
        fill: url(#Bronze-6);
      }

      .cls-5 {
        fill: url(#Bronze-7);
      }

      .cls-6 {
        fill: url(#Bronze-5);
      }

      .cls-7 {
        fill: url(#Bronze-9);
      }

      .cls-8 {
        fill: url(#Bronze-8);
      }

      .cls-9 {
        fill: url(#Bronze);
      }

      .cls-10 {
        fill: url(#Bronze-11);
      }

      .cls-11 {
        fill: url(#Bronze-12);
      }

      .cls-12 {
        fill: url(#Bronze-10);
      }

      .cls-13 {
        fill: url(#Bronze-15);
      }

      .cls-14 {
        fill: url(#Bronze-14);
      }

      .cls-15 {
        fill: url(#Bronze-13);
      }
    </style>
    <linearGradient id="Bronze" x1="847.47" y1="711.8" x2="349.67" y2="568.36" gradientUnits="userSpaceOnUse">
      <stop offset="0" stop-color="#461e18"/>
      <stop offset=".08" stop-color="#6f4a27"/>
      <stop offset=".38" stop-color="#ae9153"/>
      <stop offset=".56" stop-color="#e9d9bb"/>
      <stop offset=".79" stop-color="#a2835f"/>
      <stop offset=".8" stop-color="#a0805c"/>
      <stop offset=".96" stop-color="#89542e"/>
    </linearGradient>
    <linearGradient id="Bronze-2" data-name="Bronze" x1="848.88" y1="706.88" x2="351.08" y2="563.44" xlink:href="#Bronze"/>
    <linearGradient id="Bronze-3" data-name="Bronze" x1="850.19" y1="702.36" x2="352.39" y2="558.92" xlink:href="#Bronze"/>
    <linearGradient id="Bronze-4" data-name="Bronze" x1="851.46" y1="697.94" x2="353.66" y2="554.51" xlink:href="#Bronze"/>
    <linearGradient id="Bronze-5" data-name="Bronze" x1="853.17" y1="692.01" x2="355.37" y2="548.58" xlink:href="#Bronze"/>
    <linearGradient id="Bronze-6" data-name="Bronze" x1="854.12" y1="688.7" x2="356.32" y2="545.26" xlink:href="#Bronze"/>
    <linearGradient id="Bronze-7" data-name="Bronze" x1="855.34" y1="684.46" x2="357.54" y2="541.03" xlink:href="#Bronze"/>
    <linearGradient id="Bronze-8" data-name="Bronze" x1="856.67" y1="679.87" x2="358.87" y2="536.44" xlink:href="#Bronze"/>
    <linearGradient id="Bronze-9" data-name="Bronze" x1="858.22" y1="674.48" x2="360.42" y2="531.05" xlink:href="#Bronze"/>
    <linearGradient id="Bronze-10" data-name="Bronze" x1="859.56" y1="669.83" x2="361.76" y2="526.4" xlink:href="#Bronze"/>
    <linearGradient id="Bronze-11" data-name="Bronze" x1="861.22" y1="664.07" x2="363.42" y2="520.64" xlink:href="#Bronze"/>
    <linearGradient id="Bronze-12" data-name="Bronze" x1="865.88" y1="647.9" x2="368.08" y2="504.47" xlink:href="#Bronze"/>
    <linearGradient id="Bronze-13" data-name="Bronze" x1="870.44" y1="632.05" x2="372.64" y2="488.62" xlink:href="#Bronze"/>
    <linearGradient id="Bronze-14" data-name="Bronze" x1="879.34" y1="601.19" x2="381.54" y2="457.76" xlink:href="#Bronze"/>
    <linearGradient id="Bronze-15" data-name="Bronze" x1="887.34" y1="573.42" x2="389.54" y2="429.99" xlink:href="#Bronze"/>
  </defs>
  <g>
    <path class="cls-9" d="m451.57,589.6c1.76,0,3.15.4,4.16,1.21,1.01.81,1.52,1.92,1.52,3.33,0,1.14-.34,2.08-1.03,2.83-.69.75-1.65,1.25-2.89,1.5l5.27,6.43h-1.62l-5.14-6.23h-3.56v6.23h-1.31v-15.3h4.59Zm3.21,7.03c.77-.6,1.16-1.43,1.16-2.48s-.39-1.88-1.16-2.48c-.77-.6-1.84-.91-3.19-.91h-3.3v6.78h3.3c1.35,0,2.42-.3,3.19-.91Z"/>
    <path class="cls-2" d="m464.03,589.6h8.79v1.18h-7.5v5.88h5.51v1.18h-5.51v5.88h8.46v1.18h-9.75v-15.3Z"/>
    <path class="cls-1" d="m481.38,604.2c-1.19-.69-2.12-1.63-2.79-2.84-.67-1.21-1.01-2.58-1.01-4.11s.34-2.9,1.01-4.11c.67-1.21,1.6-2.16,2.79-2.84s2.53-1.03,4.03-1.03c1.31,0,2.5.26,3.55.78,1.06.52,1.92,1.25,2.59,2.2.67.95,1.09,2.04,1.25,3.28h-1.31c-.26-1.53-.94-2.75-2.02-3.65-1.09-.9-2.43-1.35-4.03-1.35-1.27,0-2.39.28-3.38.85-.98.57-1.75,1.36-2.31,2.38-.55,1.02-.83,2.19-.83,3.5s.28,2.46.83,3.49c.55,1.03,1.33,1.83,2.32,2.39.99.57,2.11.85,3.37.85,1.62,0,2.97-.45,4.04-1.36,1.08-.9,1.75-2.12,2.01-3.65h1.31c-.17,1.24-.6,2.33-1.27,3.28-.67.95-1.53,1.68-2.58,2.2-1.05.52-2.23.78-3.54.78-1.5,0-2.85-.34-4.03-1.03Z"/>
    <path class="cls-3" d="m503.64,589.6c1.76,0,3.15.4,4.16,1.21,1.01.81,1.52,1.92,1.52,3.33,0,1.14-.34,2.08-1.03,2.83-.69.75-1.65,1.25-2.89,1.5l5.27,6.43h-1.62l-5.14-6.23h-3.56v6.23h-1.31v-15.3h4.59Zm3.21,7.03c.77-.6,1.16-1.43,1.16-2.48s-.39-1.88-1.16-2.48c-.77-.6-1.84-.91-3.19-.91h-3.3v6.78h3.3c1.35,0,2.42-.3,3.19-.91Z"/>
    <path class="cls-6" d="m518.72,604.38c-.99-.57-1.76-1.37-2.3-2.4s-.81-2.24-.81-3.61v-8.77h1.31v8.74c0,1.73.47,3.11,1.41,4.12.94,1.01,2.22,1.52,3.84,1.52s2.87-.51,3.81-1.52c.94-1.01,1.41-2.39,1.41-4.12v-8.74h1.31v8.77c0,1.37-.27,2.57-.81,3.61-.54,1.03-1.3,1.84-2.28,2.4-.98.57-2.13.85-3.44.85s-2.46-.28-3.45-.85Z"/>
    <path class="cls-4" d="m536.1,589.6h1.31v15.3h-1.31v-15.3Z"/>
    <path class="cls-5" d="m548.97,590.87h-6.1v-1.27h13.51v1.27h-6.1v14.03h-1.31v-14.03Z"/>
    <path class="cls-8" d="m561.85,589.6h2.16l5.95,13.86,5.92-13.86h2.14v15.3h-1.29v-14.16l-6.03,14.16h-1.55l-6.01-14.16v14.16h-1.29v-15.3Z"/>
    <path class="cls-7" d="m585.8,589.6h8.79v1.18h-7.5v5.88h5.51v1.18h-5.51v5.88h8.46v1.18h-9.75v-15.3Z"/>
    <path class="cls-12" d="m601.28,589.6h1.42l10.1,13.42v-13.42h1.25v15.3h-1.4l-10.1-13.42v13.42h-1.27v-15.3Z"/>
    <path class="cls-10" d="m625.61,590.87h-6.1v-1.27h13.51v1.27h-6.1v14.03h-1.31v-14.03Z"/>
  </g>
  <g>
    <path class="cls-11" d="m398.57,528.2l-35.13-49.87h12.41l33.17,47.49,33.31-47.49h3l-35,49.98v33.32h-11.75v-33.44Z"/>
    <path class="cls-15" d="m490.03,478.34c11.41,0,20.29,2.1,26.64,6.31,6.36,4.21,9.53,10.04,9.53,17.49s-3.18,13.29-9.53,17.49c-6.36,4.21-15.24,6.31-26.64,6.31h-15.15v35.7h-11.75v-83.31h26.91Zm17.89,39.57c4.35-3.77,6.53-9.02,6.53-15.77s-2.18-12-6.53-15.77c-4.36-3.77-10.41-5.65-18.16-5.65h-14.89v42.84h14.89c7.75,0,13.8-1.88,18.16-5.65Z"/>
    <path class="cls-14" d="m567.05,556.05c-7.18-3.73-12.82-8.9-16.91-15.53-4.09-6.62-6.14-14.06-6.14-22.31s2.04-15.79,6.14-22.37c4.09-6.59,9.73-11.74,16.91-15.47,7.18-3.73,15.26-5.59,24.23-5.59s17.17,1.87,24.36,5.59c7.18,3.73,12.8,8.89,16.85,15.47,4.05,6.59,6.07,14.04,6.07,22.37s-2.02,15.69-6.07,22.31c-4.05,6.63-9.67,11.8-16.85,15.53-7.18,3.73-15.3,5.59-24.36,5.59s-17.04-1.86-24.23-5.59Zm42.64-1.67c5.31-3.33,9.45-8.11,12.41-14.34,2.96-6.23,4.44-13.51,4.44-21.84s-1.48-15.61-4.44-21.84c-2.96-6.23-7.1-11.01-12.41-14.34-5.31-3.33-11.45-5-18.42-5s-13.11,1.67-18.42,5c-5.31,3.33-9.45,8.11-12.41,14.34-2.96,6.23-4.44,13.51-4.44,21.84s1.48,15.61,4.44,21.84c2.96,6.23,7.1,11.01,12.41,14.34,5.31,3.33,11.45,5,18.42,5s13.1-1.67,18.42-5Z"/>
    <path class="cls-13" d="m670.72,558.02c-4.53-2.42-8.06-5.87-10.58-10.35-2.53-4.48-3.79-9.78-3.79-15.89v-4.05h2.61v4.05c0,5.16.98,9.68,2.94,13.57,1.96,3.89,4.72,6.9,8.29,9.05,3.57,2.14,7.71,3.21,12.41,3.21,6.79,0,12.19-2.24,16.2-6.72,4-4.48,6.01-10.45,6.01-17.91v-56.41h11.75v54.39c0,9.6-2.7,17.12-8.1,22.55-5.4,5.44-12.71,8.15-21.94,8.15-6.01,0-11.28-1.21-15.8-3.63Z"/>
  </g>
</svg>